<svg data-v-fde0c5aa="" xmlns="http://www.w3.org/2000/svg" viewBox="0 0 300 300" class="iconAbove"><!----><defs data-v-fde0c5aa=""><!----></defs><rect data-v-fde0c5aa="" fill="#F2EFF0" x="0" y="0" width="300px" height="300px" class="logo-background-square"></rect><defs data-v-fde0c5aa=""><!----></defs><g data-v-fde0c5aa="" id="6429207a-523f-4143-9869-77bfdb8c7d07" fill="#31272A" transform="matrix(6.21729767383892,0,0,6.21729767383892,16.203761589168373,193.78578029242723)"><path d="M7.01 2.25L6.26 4.16L6.26 4.16Q5.67 3.75 5.07 3.50L5.07 3.50L5.07 3.50Q4.47 3.25 3.98 3.25L3.98 3.25L3.98 3.25Q3.53 3.25 3.32 3.35L3.32 3.35L3.32 3.35Q3.11 3.46 3.11 3.82L3.11 3.82L3.11 3.82Q3.11 4.23 3.47 4.44L3.47 4.44L3.47 4.44Q3.84 4.65 4.42 4.84L4.42 4.84L4.42 4.84Q4.91 5.01 5.42 5.21L5.42 5.21L5.42 5.21Q5.92 5.42 6.33 5.75L6.33 5.75L6.33 5.75Q6.73 6.08 6.99 6.58L6.99 6.58L6.99 6.58Q7.24 7.08 7.24 7.84L7.24 7.84L7.24 7.84Q7.24 8.57 6.96 9.10L6.96 9.10L6.96 9.10Q6.68 9.63 6.22 9.97L6.22 9.97L6.22 9.97Q5.75 10.32 5.16 10.49L5.16 10.49L5.16 10.49Q4.56 10.65 3.92 10.65L3.92 10.65L3.92 10.65Q3.01 10.65 2.10 10.27L2.10 10.27L2.10 10.27Q1.19 9.88 0.49 9.13L0.49 9.13L1.30 7.24L1.30 7.24Q1.95 7.90 2.61 8.26L2.61 8.26L2.61 8.26Q3.28 8.62 3.88 8.62L3.88 8.62L3.88 8.62Q4.38 8.62 4.70 8.50L4.70 8.50L4.70 8.50Q5.03 8.37 5.04 7.97L5.04 7.97L5.04 7.97Q5.04 7.73 4.94 7.57L4.94 7.57L4.94 7.57Q4.83 7.41 4.64 7.30L4.64 7.30L4.64 7.30Q4.45 7.20 4.19 7.11L4.19 7.11L4.19 7.11Q3.92 7.03 3.63 6.93L3.63 6.93L3.63 6.93Q3.14 6.76 2.65 6.55L2.65 6.55L2.65 6.55Q2.17 6.34 1.78 6.00L1.78 6.00L1.78 6.00Q1.39 5.66 1.15 5.16L1.15 5.16L1.15 5.16Q0.91 4.66 0.91 3.93L0.91 3.93L0.91 3.93Q0.91 3.21 1.18 2.69L1.18 2.69L1.18 2.69Q1.44 2.17 1.88 1.84L1.88 1.84L1.88 1.84Q2.31 1.51 2.88 1.36L2.88 1.36L2.88 1.36Q3.44 1.20 4.05 1.20L4.05 1.20L4.05 1.20Q4.82 1.20 5.59 1.48L5.59 1.48L5.59 1.48Q6.36 1.76 7.01 2.25L7.01 2.25ZM11.30 10.50L8.78 10.50L8.78 3.22L11.30 3.22L11.30 10.50ZM11.28 1.04L11.28 1.04L11.28 1.04Q11.28 1.30 11.19 1.53L11.19 1.53L11.19 1.53Q11.09 1.76 10.92 1.93L10.92 1.93L10.92 1.93Q10.75 2.10 10.53 2.20L10.53 2.20L10.53 2.20Q10.30 2.30 10.05 2.30L10.05 2.30L10.05 2.30Q9.52 2.30 9.16 1.93L9.16 1.93L9.16 1.93Q8.79 1.57 8.79 1.04L8.79 1.04L8.79 1.04Q8.79 0.78 8.89 0.56L8.89 0.56L8.89 0.56Q8.99 0.34 9.16 0.17L9.16 0.17L9.16 0.17Q9.32 0.01 9.55-0.08L9.55-0.08L9.55-0.08Q9.79-0.18 10.05-0.18L10.05-0.18L10.05-0.18Q10.56-0.18 10.92 0.17L10.92 0.17L10.92 0.17Q11.28 0.53 11.28 1.04ZM17.09 8.97L17.09 8.97L17.09 8.97Q17.29 8.97 17.49 8.96L17.49 8.96L17.49 8.96Q17.68 8.95 17.84 8.92L17.84 8.92L17.84 8.92Q18.02 8.89 18.19 8.85L18.19 8.85L18.16 10.43L18.16 10.43Q17.92 10.49 17.65 10.54L17.65 10.54L17.65 10.54Q17.42 10.58 17.10 10.62L17.10 10.62L17.10 10.62Q16.79 10.65 16.42 10.65L16.42 10.65L16.42 10.65Q15.72 10.61 15.16 10.36L15.16 10.36L15.16 10.36Q14.92 10.25 14.70 10.08L14.70 10.08L14.70 10.08Q14.48 9.91 14.30 9.66L14.30 9.66L14.30 9.66Q14.13 9.41 14.02 9.08L14.02 9.08L14.02 9.08Q13.92 8.75 13.92 8.30L13.92 8.30L13.92 5.53L12.49 5.53L12.49 3.75L13.96 3.75L14.41 1.46L16.42 1.46L16.42 3.75L18.21 3.75L18.21 5.53L16.45 5.53L16.45 8.33L16.45 8.33Q16.48 8.68 16.64 8.83L16.64 8.83L16.64 8.83Q16.80 8.97 17.09 8.97ZM23.41 10.65L23.41 10.65L23.41 10.65Q22.08 10.65 21.21 10.31L21.21 10.31L21.21 10.31Q20.34 9.97 19.83 9.43L19.83 9.43L19.83 9.43Q19.32 8.89 19.12 8.21L19.12 8.21L19.12 8.21Q18.91 7.53 18.91 6.86L18.91 6.86L18.91 6.86Q18.91 6.19 19.12 5.51L19.12 5.51L19.12 5.51Q19.32 4.83 19.77 4.28L19.77 4.28L19.77 4.28Q20.23 3.72 20.96 3.38L20.96 3.38L20.96 3.38Q21.70 3.04 22.75 3.04L22.75 3.04L22.75 3.04Q23.83 3.04 24.56 3.38L24.56 3.38L24.56 3.38Q25.28 3.72 25.72 4.28L25.72 4.28L25.72 4.28Q26.15 4.83 26.33 5.51L26.33 5.51L26.33 5.51Q26.52 6.19 26.52 6.86L26.52 6.86L26.52 7.56L21.48 7.56L21.48 7.56Q21.49 7.73 21.61 7.97L21.61 7.97L21.61 7.97Q21.73 8.22 21.98 8.44L21.98 8.44L21.98 8.44Q22.23 8.65 22.63 8.81L22.63 8.81L22.63 8.81Q23.03 8.96 23.60 8.96L23.60 8.96L23.60 8.96Q24.14 8.96 24.58 8.87L24.58 8.87L24.58 8.87Q25.02 8.78 25.33 8.67L25.33 8.67L25.33 8.67Q25.69 8.53 25.96 8.36L25.96 8.36L25.96 10.07L25.96 10.07Q25.96 10.08 25.74 10.17L25.74 10.17L25.74 10.17Q25.52 10.26 25.16 10.37L25.16 10.37L25.16 10.37Q24.81 10.47 24.35 10.56L24.35 10.56L24.35 10.56Q23.88 10.65 23.41 10.65ZM21.48 6.13L24.25 6.13L24.25 6.13Q24.25 5.89 24.18 5.63L24.18 5.63L24.18 5.63Q24.11 5.36 23.94 5.14L23.94 5.14L23.94 5.14Q23.77 4.91 23.51 4.77L23.51 4.77L23.51 4.77Q23.24 4.62 22.85 4.62L22.85 4.62L22.85 4.62Q22.46 4.62 22.19 4.77L22.19 4.77L22.19 4.77Q21.92 4.91 21.77 5.14L21.77 5.14L21.77 5.14Q21.62 5.36 21.55 5.63L21.55 5.63L21.55 5.63Q21.48 5.89 21.48 6.13L21.48 6.13ZM31.26 3.05L31.26 3.05L31.26 3.05Q31.70 3.05 32.13 3.10L32.13 3.10L32.13 3.10Q32.56 3.15 32.93 3.21L32.93 3.21L32.93 3.21Q33.35 3.28 33.74 3.36L33.74 3.36L33.74 5.31L33.74 5.31Q33.43 5.26 33.04 5.19L33.04 5.19L33.04 5.19Q32.65 5.12 32.25 5.10L32.25 5.10L32.25 5.10Q31.85 5.07 31.47 5.11L31.47 5.11L31.47 5.11Q31.09 5.15 30.80 5.35L30.80 5.35L30.80 5.35Q30.51 5.54 30.32 5.91L30.32 5.91L30.32 5.91Q30.14 6.27 30.14 6.89L30.14 6.89L30.14 6.89Q30.14 7.53 30.32 7.92L30.32 7.92L30.32 7.92Q30.49 8.32 30.78 8.52L30.78 8.52L30.78 8.52Q31.07 8.72 31.44 8.77L31.44 8.77L31.44 8.77Q31.82 8.82 32.22 8.79L32.22 8.79L32.22 8.79Q32.62 8.75 33.01 8.66L33.01 8.66L33.01 8.66Q33.40 8.57 33.74 8.50L33.74 8.50L33.74 10.30L33.74 10.30Q33.35 10.42 32.93 10.49L32.93 10.49L32.93 10.49Q32.56 10.56 32.12 10.61L32.12 10.61L32.12 10.61Q31.68 10.65 31.25 10.65L31.25 10.65L31.25 10.65Q30.70 10.65 30.04 10.49L30.04 10.49L30.04 10.49Q29.39 10.32 28.82 9.90L28.82 9.90L28.82 9.90Q28.25 9.48 27.87 8.75L27.87 8.75L27.87 8.75Q27.50 8.02 27.50 6.89L27.50 6.89L27.50 6.89Q27.50 5.75 27.87 5.02L27.87 5.02L27.87 5.02Q28.25 4.28 28.82 3.84L28.82 3.84L28.82 3.84Q29.39 3.40 30.04 3.23L30.04 3.23L30.04 3.23Q30.70 3.05 31.26 3.05ZM39.44 3.04L39.44 3.04L39.44 3.04Q40.00 3.04 40.55 3.15L40.55 3.15L40.55 3.15Q41.10 3.26 41.55 3.61L41.55 3.61L41.55 3.61Q41.99 3.96 42.27 4.61L42.27 4.61L42.27 4.61Q42.55 5.26 42.55 6.33L42.55 6.33L42.55 10.50L40.21 10.50L40.21 7.17L40.21 7.17Q40.21 6.13 39.87 5.59L39.87 5.59L39.87 5.59Q39.54 5.05 38.91 5.05L38.91 5.05L38.91 5.05Q38.46 5.05 38.15 5.25L38.15 5.25L38.15 5.25Q37.84 5.45 37.65 5.80L37.65 5.80L37.65 5.80Q37.46 6.15 37.38 6.62L37.38 6.62L37.38 6.62Q37.30 7.08 37.30 7.64L37.30 7.64L37.30 10.50L34.79 10.50L34.79 1.55L37.09 1.55L37.09 4.56L37.09 4.56Q37.09 4.56 37.21 4.33L37.21 4.33L37.21 4.33Q37.34 4.09 37.62 3.80L37.62 3.80L37.62 3.80Q37.90 3.51 38.35 3.28L38.35 3.28L38.35 3.28Q38.79 3.04 39.44 3.04Z"></path></g><defs data-v-fde0c5aa=""><linearGradient data-v-fde0c5aa="" gradientTransform="rotate(25)" id="4e72d93b-6157-4653-9225-f95ece7a4f1e" x1="0%" y1="0%" x2="100%" y2="0%"><stop data-v-fde0c5aa="" offset="0%" stop-color="#3D1755" stop-opacity="1"></stop><stop data-v-fde0c5aa="" offset="100%" stop-color="#DAC1A5" stop-opacity="1"></stop></linearGradient></defs><g data-v-fde0c5aa="" id="b71bef63-4a44-4d5a-8a89-7e98b2e708a2" stroke="none" fill="url(#4e72d93b-6157-4653-9225-f95ece7a4f1e)" transform="matrix(3.2172269509763916,0,0,3.2172269509763916,-10.860717036450012,-53.53121740241481)"><path d="M14.063 46.304c.123.123.251.184.373.162a.318.318 0 0 0 .162-.084c.593 1.846 1.73 3.686 3.165 4.783.827.634 1.752 1.021 2.728 1.021.999 0 1.943-.405 2.783-1.063 1.409-1.103 2.525-2.919 3.111-4.741a.31.31 0 0 0 .161.084c.104.019.214-.024.322-.115.268-.227.521-.758.635-1.403.15-.841.015-1.579-.302-1.727a.253.253 0 0 0-.072-.023c-.098-.017-.201.019-.3.098l-.005.006V43.3l-.003.002-.002-.018c-.379-1.442-.858-2.326-1.353-2.852a1.538 1.538 0 0 0-.305-.13c-.013.213.229.536.255.851-.686-.319-1.341-.816-2.298-.851a13.032 13.032 0 0 0-.714-.001c-2.31.826-4.849-.108-4.849-.108-2.896-.269-3.355 2.74-3.391 3.084l-.002.025h-.001c-.103-.083-.208-.122-.309-.104a.298.298 0 0 0-.124.054c-.09.064-.161.186-.213.341-.029.405-.047.814-.053 1.237.006.04.009.078.017.118.108.604.334 1.107.584 1.356zM73.149 46.304c.122.123.251.184.372.162a.318.318 0 0 0 .162-.084c.593 1.846 1.729 3.686 3.165 4.783.826.634 1.752 1.021 2.728 1.021.999 0 1.943-.405 2.783-1.063 1.409-1.103 2.525-2.919 3.111-4.741a.31.31 0 0 0 .161.084c.104.019.214-.024.321-.115.268-.227.521-.758.636-1.403.15-.841.015-1.579-.302-1.727a.253.253 0 0 0-.072-.023c-.098-.017-.2.019-.3.098l-.006.006V43.3l-.003.002-.002-.018c-.38-1.442-.858-2.326-1.353-2.852a1.547 1.547 0 0 0-.306-.13c-.013.213.229.536.256.851-.686-.319-1.341-.816-2.299-.851a13.032 13.032 0 0 0-.714-.001c-2.31.826-4.85-.108-4.85-.108-2.896-.269-3.355 2.74-3.39 3.084l-.003.025h-.001c-.103-.083-.208-.122-.309-.104a.294.294 0 0 0-.123.054c-.09.064-.161.186-.213.341a20.65 20.65 0 0 0-.053 1.237c.006.04.009.078.017.118.112.604.338 1.107.587 1.356zM55.253 52.813l-.019-.009c-.895.882-1.889 1.58-2.949 2.001-.72.284-1.47.443-2.242.443s-1.522-.159-2.242-.443c-1.071-.425-2.074-1.132-2.974-2.025h-.001c0 1.1-.84 1.726-1.41 2.025-.067.035-.132.065-.19.092a2.89 2.89 0 0 1-.297.119v.001c.034.282.159.555.36.812.943 1.205 3.592 2.946 6.716 2.946 3.122 0 5.772-1.741 6.715-2.946.201-.257.327-.529.361-.811l.002-.025c-.387-.142-1.808-.764-1.83-2.18z"></path><path d="M58.351 42.378a.37.37 0 0 0-.089-.028l-.89.858-10.967-5.645a3.806 3.806 0 0 0-.349-.017c-3.272 0-3.806 4.489-3.848 4.902a.471.471 0 0 0-.004.031.515.515 0 0 0-.321-.134.376.376 0 0 0-.213.07c-.346.249-.486 1.119-.31 2.102.133.747.416 1.371.723 1.678.132.133.27.207.402.207.02 0 .04-.001.06-.005a.4.4 0 0 0 .199-.104c.728 2.267 2.12 4.525 3.875 5.888 1.034.804 2.196 1.297 3.423 1.297 1.219 0 2.374-.486 3.404-1.281 1.765-1.363 3.163-3.629 3.896-5.904a.367.367 0 0 0 .259.109c.11 0 .226-.053.338-.147.331-.282.644-.939.785-1.738.187-1.042.019-1.955-.373-2.139z"></path><path d="M33.458 55.729c-1.459-1.614-2.925-1.737-3.367-1.841-1.372-.321-3.034-.185-3.921-.461-.104.869-2.633 3.731-4.292 5.524l-.719-2.771c.541-.317.658-1.021.658-1.604h-2.723c0 .578.117 1.275.645 1.597l-.706 2.778c-1.659-1.795-4.188-4.655-4.292-5.525-.885.277-2.548.141-3.92.462-.697.162-3.936.37-5.688 6.4a3.293 3.293 0 0 0 .232 2.438c1.436 2.716 8.987 3.551 15.091 3.55 2.817.001 5.942-.177 8.632-.636a6.03 6.03 0 0 1 .152-2.648c.953-3.272 2.365-5.699 4.218-7.263z"></path><path d="M13.392 47.008c.646 1.737 1.668 3.425 2.933 4.661.715.699 1.508 1.252 2.354 1.588.581.23 1.188.357 1.811.357.624 0 1.23-.128 1.812-.357.875-.348 1.694-.928 2.429-1.662 1.234-1.231 2.23-2.893 2.863-4.601.487-.144.998-1.056 1.206-2.221.226-1.265.013-2.367-.475-2.551.018-.309.029-.62.028-.941-.012-4.583-2.699-7.248-6.936-7.531-3.694-.248-6.477 1.22-7.745 3.66-.426.821-.67 1.848-.763 2.963a7.594 7.594 0 0 0-.226 1.808h.014l-.001.015-.027.003c-.54.094-.786 1.247-.549 2.575.214 1.22.764 2.163 1.272 2.234zm.123-3.415c.052-.155.123-.277.213-.341a.298.298 0 0 1 .124-.054c.101-.018.206.021.309.104h.001l.002-.025c.035-.344.495-3.353 3.391-3.084 0 0 2.54.934 4.849.108.249-.004.49-.006.714.001.958.035 1.613.532 2.298.851-.026-.315-.268-.638-.255-.851.11.032.209.078.305.13.494.526.973 1.41 1.353 2.852l.002.018.003-.002v.002l.005-.006c.1-.079.203-.115.3-.098a.263.263 0 0 1 .072.023c.316.148.452.886.302 1.727-.115.646-.368 1.176-.635 1.403-.108.091-.217.133-.322.115a.307.307 0 0 1-.161-.084c-.585 1.822-1.702 3.639-3.111 4.741-.84.657-1.785 1.063-2.783 1.063-.976 0-1.901-.387-2.728-1.021-1.435-1.098-2.572-2.937-3.165-4.783a.314.314 0 0 1-.162.084c-.122.021-.25-.039-.373-.162-.249-.249-.476-.752-.584-1.356-.007-.04-.011-.078-.017-.118.005-.423.024-.831.053-1.237zM94.867 60.29c-1.753-6.031-4.991-6.239-5.689-6.401-1.372-.321-3.034-.185-3.921-.461-.104.869-2.633 3.731-4.291 5.524l-.719-2.771c.54-.317.657-1.021.657-1.604h-2.723c0 .578.116 1.275.645 1.597l-.706 2.778c-1.658-1.795-4.188-4.655-4.292-5.525-.885.277-2.548.141-3.92.462-.442.104-1.906.227-3.365 1.839 1.855 1.563 3.269 3.992 4.221 7.269a6.02 6.02 0 0 1 .152 2.646c2.689.459 5.812.637 8.627.636 6.104.002 13.655-.834 15.092-3.55a3.301 3.301 0 0 0 .232-2.439z"></path><path d="M72.479 47.008c.646 1.737 1.668 3.425 2.933 4.661.716.699 1.508 1.252 2.354 1.588.581.23 1.188.357 1.812.357s1.229-.128 1.811-.357c.875-.348 1.694-.928 2.429-1.662 1.234-1.231 2.23-2.893 2.863-4.601.486-.144.998-1.056 1.205-2.221.227-1.265.013-2.367-.475-2.551.018-.309.029-.62.028-.941-.012-4.583-2.699-7.248-6.937-7.531-3.694-.248-6.477 1.22-7.745 3.66-.426.821-.67 1.848-.763 2.963a7.543 7.543 0 0 0-.226 1.808h.014l-.002.015-.027.003c-.54.094-.786 1.247-.549 2.575.217 1.22.767 2.163 1.275 2.234zm.123-3.415c.052-.155.123-.277.213-.341a.294.294 0 0 1 .123-.054c.101-.018.206.021.309.104h.001l.003-.025c.034-.344.494-3.353 3.39-3.084 0 0 2.54.934 4.85.108.248-.004.49-.006.714.001.958.035 1.613.532 2.299.851-.026-.315-.269-.638-.256-.851.11.032.209.078.306.13.494.526.973 1.41 1.353 2.852l.002.018.003-.002v.002l.006-.006c.1-.079.202-.115.3-.098.025.004.05.012.072.023.316.148.452.886.302 1.727-.115.646-.368 1.176-.636 1.403-.107.091-.217.133-.321.115a.307.307 0 0 1-.161-.084c-.586 1.822-1.702 3.639-3.111 4.741-.84.657-1.784 1.063-2.783 1.063-.976 0-1.901-.387-2.728-1.021-1.436-1.098-2.572-2.937-3.165-4.783a.321.321 0 0 1-.162.084c-.121.021-.25-.039-.372-.162-.249-.249-.476-.752-.584-1.356-.008-.04-.011-.078-.017-.118.002-.423.02-.831.05-1.237zM61.934 55.587a9.674 9.674 0 0 0-.305-.064C59.01 53.102 60.798 43 60.798 43c0-12.869-7.273-13.928-9.665-13.928-.471 0-.752.041-.752.041a16.622 16.622 0 0 0-.378-.016c-.125.003-.25.009-.378.016 0 0-.282-.041-.752-.041-2.392 0-9.666 1.058-9.666 13.928 0 0 1.788 10.103-.832 12.523-.103.021-.204.041-.303.064-.864.202-4.874.459-7.045 7.926-.294 1.015-.19 2.116.288 3.021 1.776 3.358 11.113 4.396 18.667 4.396h.04c7.555 0 16.891-1.037 18.667-4.396.479-.904.581-2.006.287-3.021-2.169-7.467-6.179-7.724-7.042-7.926zm-4.855-.569c-.034.281-.16.554-.361.811-.942 1.205-3.593 2.946-6.715 2.946-3.124 0-5.773-1.741-6.716-2.946a1.64 1.64 0 0 1-.36-.812v-.001a3.55 3.55 0 0 0 .487-.211c.57-.3 1.41-.926 1.41-2.025h.001c.9.894 1.903 1.601 2.974 2.025.72.284 1.47.443 2.242.443s1.522-.159 2.242-.443c1.061-.421 2.055-1.119 2.949-2.001l.019.009c.022 1.417 1.443 2.038 1.828 2.18a.104.104 0 0 1 0 .025zm1.645-10.501c-.142.799-.454 1.457-.785 1.738a.543.543 0 0 1-.338.147.378.378 0 0 1-.259-.109c-.732 2.275-2.131 4.541-3.896 5.904-1.03.795-2.185 1.281-3.404 1.281-1.227 0-2.389-.493-3.423-1.297-1.755-1.363-3.147-3.622-3.875-5.888a.381.381 0 0 1-.259.109c-.133 0-.271-.074-.402-.207-.308-.307-.59-.931-.723-1.678-.176-.983-.037-1.853.31-2.102a.37.37 0 0 1 .213-.07c.106 0 .215.047.321.134l.004-.031c.042-.413.576-4.902 3.848-4.902.113 0 .23.005.349.017l10.967 5.645.89-.858a.37.37 0 0 1 .089.028c.392.184.56 1.097.373 2.139z"></path></g><!----></svg>